<?xml version="1.0" encoding="UTF-8" ?>
<!DOCTYPE svg PUBLIC "-//W3C//DTD SVG 1.1//EN" "http://www.w3.org/Graphics/SVG/1.1/DTD/svg11.dtd">
<svg width="522pt" height="123pt" viewBox="0 0 522 123" version="1.1" xmlns="http://www.w3.org/2000/svg">
<g id="#0095d4ff">
<path fill="#0095d4" opacity="1.00" d=" M 227.28 0.00 L 335.62 0.00 C 343.96 0.52 352.11 3.96 358.12 9.80 C 365.19 16.52 369.18 26.27 369.01 36.01 C 368.93 48.02 369.12 60.03 368.92 72.04 C 368.24 88.52 354.52 103.24 338.08 104.92 C 329.07 105.61 320.01 105.11 310.98 105.22 C 308.77 105.38 306.20 104.70 304.35 106.26 C 296.56 111.85 288.79 117.46 280.97 123.00 L 280.90 123.00 C 273.29 117.63 265.73 112.19 258.19 106.73 C 257.19 106.09 256.20 105.20 254.94 105.27 C 245.64 105.12 236.32 105.43 227.02 105.14 C 213.78 104.63 201.37 95.84 196.40 83.57 C 192.19 73.95 193.93 63.24 193.56 53.07 C 193.89 44.00 192.62 34.72 194.92 25.84 C 198.71 11.44 212.40 0.51 227.28 0.00 M 225.44 30.25 C 220.10 34.44 217.78 41.39 217.72 48.00 C 217.55 58.37 217.68 68.74 217.65 79.12 C 220.75 79.16 223.84 79.15 226.94 79.10 C 227.03 67.73 226.78 56.35 227.06 44.98 C 227.58 38.76 233.82 34.14 239.92 35.36 C 245.62 35.93 249.70 41.51 249.41 47.07 C 249.45 57.72 249.44 68.37 249.40 79.01 C 252.49 79.21 255.60 79.17 258.70 79.07 C 258.76 68.06 258.60 57.05 258.77 46.04 C 258.69 39.67 264.81 34.30 271.13 35.30 C 276.61 35.55 280.94 40.60 281.02 45.96 C 281.11 57.00 281.02 68.05 281.06 79.10 C 284.12 79.15 287.19 79.15 290.26 79.12 C 290.24 68.79 290.32 58.45 290.22 48.11 C 290.20 42.69 288.73 37.10 285.19 32.89 C 277.45 23.43 261.13 24.17 254.03 34.07 C 247.59 25.26 233.97 23.61 225.44 30.25 M 309.87 27.77 C 299.39 31.67 292.18 42.78 292.84 53.95 C 292.63 65.81 301.57 76.93 313.07 79.59 C 320.54 81.11 328.89 79.87 334.81 74.79 C 340.57 70.25 343.65 63.26 345.06 56.22 C 341.86 55.78 338.68 55.00 335.43 54.98 C 334.72 59.57 332.92 64.25 329.30 67.33 C 323.69 72.41 314.26 72.40 308.67 67.30 C 300.12 60.10 300.32 45.03 309.23 38.20 C 315.34 33.03 325.23 34.09 330.45 40.05 C 322.08 44.81 313.67 49.52 305.25 54.18 C 306.52 56.55 307.83 58.91 309.19 61.23 C 320.56 54.96 331.97 48.76 343.18 42.23 C 341.31 39.04 339.44 35.77 336.69 33.24 C 329.87 26.32 318.86 24.22 309.87 27.77 Z" />
</g>
<g id="#000">
<path fill="#000" opacity="1.00" d=" M 132.44 4.38 C 135.54 4.37 138.64 4.37 141.75 4.37 C 141.75 29.71 141.76 55.04 141.75 80.38 C 138.64 80.38 135.54 80.38 132.44 80.38 C 132.43 55.04 132.43 29.71 132.44 4.38 Z" />
<path fill="#000" opacity="1.00" d=" M 148.00 4.37 C 151.13 4.37 154.25 4.37 157.38 4.38 C 157.38 18.65 157.37 32.93 157.38 47.20 C 161.46 47.18 166.26 47.56 169.33 44.29 C 173.61 39.64 176.16 33.72 179.75 28.57 C 183.30 27.93 187.11 28.50 190.76 28.31 C 185.87 35.34 182.72 43.94 175.74 49.25 C 180.92 50.16 185.84 53.69 187.07 59.02 C 188.74 66.00 187.62 73.27 187.94 80.37 C 184.81 80.38 181.69 80.38 178.56 80.37 C 178.42 74.77 178.90 69.14 178.22 63.56 C 177.76 60.07 175.00 57.04 171.43 56.63 C 166.77 56.10 162.06 56.49 157.38 56.38 C 157.37 64.38 157.38 72.38 157.37 80.37 C 154.25 80.38 151.12 80.38 148.00 80.38 C 148.00 55.04 148.00 29.71 148.00 4.37 Z" />
<path fill="#000" opacity="1.00" d=" M 431.51 25.24 C 433.33 25.25 435.16 25.25 436.99 25.25 C 437.00 42.75 437.00 60.25 436.99 77.76 C 435.15 77.75 433.32 77.74 431.49 77.74 C 431.51 60.24 431.48 42.74 431.51 25.24 Z" />
<path fill="#fff" opacity="1.00" d=" M 225.44 30.25 C 233.97 23.61 247.59 25.26 254.03 34.07 C 261.13 24.17 277.45 23.43 285.19 32.89 C 288.73 37.10 290.20 42.69 290.22 48.11 C 290.32 58.45 290.24 68.79 290.26 79.12 C 287.19 79.15 284.12 79.15 281.06 79.10 C 281.02 68.05 281.11 57.00 281.02 45.96 C 280.94 40.60 276.61 35.55 271.13 35.30 C 264.81 34.30 258.69 39.67 258.77 46.04 C 258.60 57.05 258.76 68.06 258.70 79.07 C 255.60 79.17 252.49 79.21 249.40 79.01 C 249.44 68.37 249.45 57.72 249.41 47.07 C 249.70 41.51 245.62 35.93 239.92 35.36 C 233.82 34.14 227.58 38.76 227.06 44.98 C 226.78 56.35 227.03 67.73 226.94 79.10 C 223.84 79.15 220.75 79.16 217.65 79.12 C 217.68 68.74 217.55 58.37 217.72 48.00 C 217.78 41.39 220.10 34.44 225.44 30.25 Z" />
<path fill="#fff" opacity="1.00" d=" M 309.87 27.77 C 318.86 24.22 329.87 26.32 336.69 33.24 C 339.44 35.77 341.31 39.04 343.18 42.23 C 331.97 48.76 320.56 54.96 309.19 61.23 C 307.83 58.91 306.52 56.55 305.25 54.18 C 313.67 49.52 322.08 44.81 330.45 40.05 C 325.23 34.09 315.34 33.03 309.23 38.20 C 300.32 45.03 300.12 60.10 308.67 67.30 C 314.26 72.40 323.69 72.41 329.30 67.33 C 332.92 64.25 334.72 59.57 335.43 54.98 C 338.68 55.00 341.86 55.78 345.06 56.22 C 343.65 63.26 340.57 70.25 334.81 74.79 C 328.89 79.87 320.54 81.11 313.07 79.59 C 301.57 76.93 292.63 65.81 292.84 53.95 C 292.18 42.78 299.39 31.67 309.87 27.77 Z" />
<path fill="#000" opacity="1.00" d=" M 92.43 28.65 C 100.01 26.26 108.72 27.06 115.40 31.51 C 122.29 35.90 126.68 43.81 126.91 51.96 C 127.33 61.43 127.04 70.90 127.12 80.37 C 123.98 80.38 120.83 80.38 117.69 80.37 C 117.67 71.56 117.71 62.75 117.68 53.93 C 117.66 49.25 116.20 44.44 112.91 41.01 C 107.05 34.54 95.73 34.53 89.70 40.77 C 81.68 48.92 83.22 64.81 93.53 70.39 C 100.33 74.11 108.84 72.18 114.70 67.56 C 114.68 70.95 114.69 74.34 114.68 77.72 C 108.74 80.92 101.66 82.07 95.05 80.58 C 87.20 78.78 80.46 72.97 77.34 65.58 C 74.87 59.75 74.59 53.13 75.95 46.99 C 77.83 38.61 84.22 31.30 92.43 28.65 Z" />
<path fill="#000" opacity="1.00" d=" M 0.00 28.31 C 3.08 28.31 6.16 28.31 9.25 28.31 C 9.26 38.56 9.25 48.81 9.25 59.06 C 9.21 62.23 9.71 65.60 11.74 68.15 C 15.64 73.47 24.51 73.63 28.77 68.68 C 30.90 66.36 31.77 63.15 31.75 60.05 C 31.76 49.47 31.75 38.90 31.75 28.32 C 34.83 28.31 37.91 28.31 41.00 28.31 C 41.01 38.53 41.00 48.76 40.99 58.98 C 40.96 62.26 41.48 65.75 43.65 68.35 C 47.63 73.51 56.43 73.57 60.56 68.56 C 62.89 65.95 63.49 62.33 63.44 58.94 C 63.43 48.73 63.43 38.52 63.44 28.31 C 66.52 28.31 69.60 28.31 72.69 28.31 C 72.67 38.44 72.72 48.56 72.67 58.69 C 72.64 65.01 70.91 71.71 66.15 76.15 C 57.95 84.05 43.02 82.77 36.35 73.47 C 30.00 81.99 16.89 83.91 8.34 77.68 C 3.08 73.91 0.56 67.49 0.00 61.22 L 0.00 28.31 Z" />
<path fill="#000" opacity="1.00" d=" M 387.25 28.25 C 395.84 28.58 404.74 27.23 413.05 29.97 C 420.79 32.24 422.42 43.67 416.63 48.75 C 414.78 50.36 412.39 51.06 410.06 51.61 C 413.99 52.59 418.37 53.96 420.41 57.79 C 422.91 62.92 421.90 69.73 417.68 73.67 C 414.24 76.66 409.55 77.75 405.08 77.75 C 399.14 77.76 393.19 77.74 387.25 77.75 C 387.25 61.25 387.25 44.75 387.25 28.25 M 393.01 33.25 C 392.99 38.66 393.00 44.08 393.00 49.50 C 398.32 49.30 403.76 50.06 408.98 48.74 C 415.21 47.34 415.98 37.09 410.19 34.62 C 404.71 32.54 398.72 33.45 393.01 33.25 M 393.01 54.25 C 393.00 60.42 392.99 66.58 393.01 72.75 C 397.38 72.69 401.77 72.85 406.15 72.69 C 409.41 72.41 413.22 71.14 414.59 67.88 C 416.45 63.80 415.79 57.55 411.07 55.76 C 405.37 53.42 399.00 54.52 393.01 54.25 Z" />
<path fill="#000" opacity="1.00" d=" M 458.54 40.72 C 464.11 39.19 470.64 39.92 475.13 43.80 C 479.36 47.56 481.17 53.41 481.03 58.96 C 481.22 64.52 479.71 70.50 475.49 74.38 C 468.59 80.49 456.42 79.79 450.77 72.29 C 446.78 67.09 446.44 60.09 447.34 53.85 C 448.28 47.86 452.47 42.19 458.54 40.72 M 459.40 45.54 C 455.91 46.81 453.85 50.33 453.24 53.84 C 452.34 58.89 452.36 64.47 454.93 69.05 C 457.89 74.16 465.27 75.06 470.06 72.16 C 473.75 69.85 474.91 65.27 475.22 61.20 C 475.43 56.47 474.99 51.14 471.58 47.52 C 468.39 44.51 463.39 44.10 459.40 45.54 Z" />
<path fill="#000" opacity="1.00" d=" M 492.59 43.56 C 496.07 40.38 501.13 39.60 505.67 40.16 C 510.88 41.20 516.22 40.59 521.50 40.75 C 521.50 41.61 521.51 43.34 521.51 44.20 C 519.20 44.50 516.89 44.78 514.59 45.07 C 517.53 49.07 517.87 54.87 515.15 59.06 C 512.42 63.00 507.41 64.56 502.80 64.38 C 501.23 64.40 499.38 63.83 498.20 65.20 C 496.01 66.59 495.19 70.83 498.40 71.50 C 504.34 72.38 510.87 70.64 516.43 73.57 C 521.35 76.09 522.09 82.94 519.56 87.42 C 517.09 91.86 511.76 93.52 507.02 94.06 C 501.39 94.60 495.11 94.88 490.18 91.63 C 485.89 88.85 485.00 82.26 488.29 78.39 C 489.85 76.43 492.22 75.41 494.58 74.83 C 492.49 73.69 490.83 71.49 491.25 68.99 C 491.41 66.40 493.59 64.68 495.53 63.27 C 488.30 59.79 487.17 49.09 492.59 43.56 M 499.51 44.62 C 493.32 46.79 492.97 57.43 499.18 59.79 C 502.83 61.06 508.08 60.83 510.29 57.20 C 512.10 53.89 511.81 49.47 509.58 46.43 C 507.02 43.81 502.84 43.74 499.51 44.62 M 497.16 77.19 C 492.41 77.67 489.84 84.29 493.27 87.68 C 496.13 90.38 500.37 90.06 504.01 90.00 C 507.83 89.78 512.35 89.05 514.61 85.57 C 516.40 82.84 515.70 78.00 512.00 77.41 C 507.11 76.68 502.08 76.93 497.16 77.19 Z" />
</g>
</svg>
